<?xml version="1.0" encoding="UTF-8"?>
<svg width="16" height="16" version="1.1" xmlns="http://www.w3.org/2000/svg" xmlns:cc="http://creativecommons.org/ns#" xmlns:dc="http://purl.org/dc/elements/1.1/" xmlns:rdf="http://www.w3.org/1999/02/22-rdf-syntax-ns#">
	<metadata>
		<rdf:RDF>
			<cc:Work rdf:about="">
				<dc:format>image/svg+xml</dc:format>
				<dc:type rdf:resource="http://purl.org/dc/dcmitype/StillImage"/>
				<dc:title/>
			</cc:Work>
		</rdf:RDF>
	</metadata>
	<defs>
		<style id="current-color-scheme" type="text/css">.ColorScheme-Text {
        color:#eff0f1;
      }</style>
	</defs>
	<path class="ColorScheme-Text" d="m2.5 2c-.27614 0-.5.22386-.5.5s.22386.5.5.5.5-.22386.5-.5-.22386-.5-.5-.5zm3 0c-.27614 0-.5.22386-.5.5s.22386.5.5.5.5-.22386.5-.5-.22386-.5-.5-.5zm7.6602 0-3.4219 4.3105c-.67552-.25683-1.5272-.3281-2.7383-.31055-1.3558 1.2931-2.2492 1.7092-5 2v1c2.1137 3.3717 3.4746 5 7 5h1c1.074-1.3838 1.6271-2.3898 2-4v-1c-.44149-.99061-.842-1.6654-1.3262-2.1211l3.3262-4.2188-.83984-.66016zm-9.1602 2c-.55228 0-1 .44772-1 1s.44772 1 1 1 1-.44772 1-1-.44772-1-1-1zm3.5293 3.1016c2.103.16401 2.6393.9147 3.3281 2.5977-.57283 1.5466-.47202 1.9036-1.584 3.2695-3.1378-.27384-4.2207-1.4282-5.9473-4.1387 1.7962-.07333 2.7823-.72545 4.2031-1.7285z" fill="#f00" stroke="#800000" stroke-width=".5"/>
</svg>
