<?xml version="1.0" encoding="UTF-8"?>
<svg width="16" height="16" version="1.1" xmlns="http://www.w3.org/2000/svg">
	<rect x="1.5" y="3.5" width="13" height="9" fill="none" stroke="#999" stroke-width="1"/>
	<rect x="1.5" y="3.5" rx="3" ry="3" width="13" height="9" fill="#000" stroke="#999" stroke-width="1"/>
	<rect x="0.5" y="2.5" width="15" height="11" fill="none" stroke="#444" stroke-width="1"/>
	<path d="M6,8h-3.5a3.5,3.5 0 0 1 3.5,-3.5 Z" fill="#F00" stroke="none"/>
	<path d="M6,8v3.5a3.5,3.5 0 0 1 -3.5,-3.5 Z" fill="#0F0" stroke="none"/>
	<path d="M6,8h3.5a3.5,3.5 0 0 1 -3.5,3.5 Z" fill="#00F" stroke="none"/>
	<path d="M6,8v-3.5a3.5,3.5 0 0 1 3.5,3.5 Z" fill="#FFF" stroke="none"/>
	<circle cx="6" cy="8" r="1" fill="#999" stroke="#666" stroke-width="1"/>
	<circle cx="6" cy="8" r="2" fill="none" stroke="#000" stroke-width="1.25" stroke-opacity="0.4"/>
	<rect x="10.5" y="5" width="2.5" height="6" fill="#060" stroke="#393" stroke-width="0.5" stroke-linejoin="bevel"/>
	<rect x="11.25" y="5.75" width="1" height="1" fill="#000" stroke="#F66" stroke-width="0.5" stroke-dasharray="0.1 0.1"/>
	<path d="M7,5L12.5,9v1.5h-1.5Z" fill="#942" stroke="#C63" stroke-width="0.2" stroke-linejoin="miter"/>
	<circle cx="11.75" cy="9.75" r="1.5" fill="#F96" stroke="#C63" stroke-width="1"/>
</svg>