<?xml version="1.0" encoding="UTF-8" standalone="no"?>
<svg
   xmlns:dc="http://purl.org/dc/elements/1.1/"
   xmlns:cc="http://creativecommons.org/ns#"
   xmlns:rdf="http://www.w3.org/1999/02/22-rdf-syntax-ns#"
   xmlns:svg="http://www.w3.org/2000/svg"
   xmlns="http://www.w3.org/2000/svg"
   xmlns:xlink="http://www.w3.org/1999/xlink"
   width="48px"
   height="48px"
   id="svg7420"
   version="1.1">
  <defs
     id="defs7422">
    <linearGradient
       id="linearGradient3319">
      <stop
         style="stop-color:#ffffff;stop-opacity:0;"
         offset="0"
         id="stop3321" />
      <stop
         id="stop3323"
         offset="0.57424062"
         style="stop-color:#ffffff;stop-opacity:0.14383562;" />
      <stop
         style="stop-color:#ffffff;stop-opacity:0;"
         offset="1"
         id="stop3325" />
    </linearGradient>
    <linearGradient
       xlink:href="#linearGradient3319"
       id="linearGradient3317"
       gradientUnits="userSpaceOnUse"
       gradientTransform="matrix(0.9543659,0,0,0.9543659,0.49369,1.8951134)"
       x1="24.668951"
       y1="42.95816"
       x2="39.686337"
       y2="28.50532" />
    <linearGradient
       id="linearGradient4873">
      <stop
         id="stop4875"
         offset="0"
         style="stop-color:#ffffff;stop-opacity:1;" />
      <stop
         id="stop4877"
         offset="1"
         style="stop-color:#ffffff;stop-opacity:0;" />
    </linearGradient>
    <linearGradient
       xlink:href="#linearGradient4873"
       id="linearGradient3567"
       gradientUnits="userSpaceOnUse"
       gradientTransform="matrix(0.9543659,0,0,0.9543659,0.49369,1.8951134)"
       x1="21.628975"
       y1="2.1102102"
       x2="22.245434"
       y2="43.366352" />
    <linearGradient
       id="linearGradient3266">
      <stop
         style="stop-color:#204a87;stop-opacity:1"
         offset="0"
         id="stop3268" />
      <stop
         style="stop-color:#204a87;stop-opacity:0"
         offset="1"
         id="stop3270" />
    </linearGradient>
    <linearGradient
       xlink:href="#linearGradient3266"
       id="linearGradient3272"
       x1="33.686768"
       y1="35.773647"
       x2="37.039948"
       y2="29.856804"
       gradientUnits="userSpaceOnUse"
       gradientTransform="translate(3.86e-4,-0.9995213)" />
    <linearGradient
       id="linearGradient3276">
      <stop
         style="stop-color:#3465a4;stop-opacity:1"
         offset="0"
         id="stop3278" />
      <stop
         style="stop-color:#3465a4;stop-opacity:0"
         offset="1"
         id="stop3280" />
    </linearGradient>
    <linearGradient
       xlink:href="#linearGradient3276"
       id="linearGradient3282"
       x1="31.226292"
       y1="34.600941"
       x2="34.96563"
       y2="26.842505"
       gradientUnits="userSpaceOnUse"
       gradientTransform="translate(3.86e-4,-0.9995213)" />
    <linearGradient
       id="linearGradient3533">
      <stop
         id="stop3535"
         style="stop-color:#729fcf;stop-opacity:1"
         offset="0" />
      <stop
         id="stop3545"
         style="stop-color:#3465a4;stop-opacity:1"
         offset="1" />
    </linearGradient>
    <linearGradient
       xlink:href="#linearGradient3533"
       id="linearGradient3573"
       gradientUnits="userSpaceOnUse"
       gradientTransform="matrix(0.9543659,0,0,0.9543659,0.49369,1.8951134)"
       x1="24.663708"
       y1="1.1526506"
       x2="36.277157"
       y2="31.443766" />
    <linearGradient
       id="linearGradient8838">
      <stop
         style="stop-color:#000000;stop-opacity:1;"
         offset="0"
         id="stop8840" />
      <stop
         style="stop-color:#000000;stop-opacity:0;"
         offset="1"
         id="stop8842" />
    </linearGradient>
    <radialGradient
       xlink:href="#linearGradient8838"
       id="radialGradient3533"
       gradientUnits="userSpaceOnUse"
       gradientTransform="matrix(1,0,0,0.341176,0,3.047059)"
       cx="62.625"
       cy="4.625"
       fx="62.625"
       fy="4.625"
       r="10.625" />
  </defs>
  <metadata
     id="metadata7425">
    <rdf:RDF>
      <cc:Work
         rdf:about="">
        <dc:format>image/svg+xml</dc:format>
        <dc:type
           rdf:resource="http://purl.org/dc/dcmitype/StillImage" />
        <dc:title></dc:title>
      </cc:Work>
    </rdf:RDF>
  </metadata>
  <g
     id="layer1">
    <g
       transform="translate(-1.590352,-1.0136895)"
       id="layer2"
       style="display:inline" />
    <g
       id="g2630"
       style="display:inline"
       transform="translate(-70.604319,-2.1799942)" />
    <ellipse
       transform="matrix(2.149872,0,0,2.5636643,-110.63534,26.84977)"
       id="path8836"
       style="display:inline;overflow:visible;visibility:visible;opacity:0.56044;fill:url(#radialGradient3533);fill-opacity:1;fill-rule:evenodd;stroke:none;stroke-width:1;stroke-linecap:butt;stroke-linejoin:round;stroke-miterlimit:4;stroke-dasharray:none;stroke-dashoffset:0;stroke-opacity:1;marker:none;marker-start:none;marker-mid:none;marker-end:none"
       cx="62.625"
       cy="4.625"
       rx="10.625"
       ry="3.625" />
    <g
       transform="matrix(0.9248169,0,0,0.9248169,-221.70714,13.0581)"
       id="layer6" />
    <g
       transform="matrix(0.9248169,0,0,0.9248169,-221.70714,13.0581)"
       id="g2161"
       style="display:inline" />
    <g
       transform="matrix(0.9248169,0,0,0.9248169,-270.77613,-10.260991)"
       id="layer5" />
    <g
       transform="matrix(0.9248169,0,0,0.9248169,-236.49158,13.317533)"
       id="g2482" />
    <g
       transform="matrix(0.9248169,0,0,0.9248169,-236.49158,13.317533)"
       id="g2484"
       style="display:inline" />
    <g
       transform="matrix(0.9248169,0,0,0.9248169,-285.56057,-10.001558)"
       id="g2486" />
    <g
       transform="matrix(0.9248169,0,0,0.9248169,-220.44739,16.571925)"
       id="g2309" />
    <g
       transform="matrix(0.9248169,0,0,0.9248169,-220.44739,16.571925)"
       id="g2311"
       style="display:inline" />
    <g
       transform="matrix(0.9248169,0,0,0.9248169,-269.51638,-6.7471665)"
       id="g2313" />
    <g
       transform="matrix(0.9248169,0,0,0.9248169,-335.99693,22.698689)"
       id="g2511" />
    <g
       transform="matrix(0.9248169,0,0,0.9248169,-335.99693,22.698689)"
       id="g2513"
       style="display:inline" />
    <g
       transform="matrix(0.9248169,0,0,0.9248169,-385.06592,-0.6204024)"
       id="g2515" />
    <g
       transform="matrix(0.9248169,0,0,0.9248169,-278.60826,-29.839987)"
       id="g2802" />
    <g
       transform="matrix(0.9248169,0,0,0.9248169,-278.60826,-29.839987)"
       id="g2170"
       style="display:inline" />
    <g
       transform="matrix(0.9248169,0,0,0.9248169,-397.47515,-3.4577371)"
       id="g5398" />
    <g
       transform="matrix(0.9248169,0,0,0.9248169,-397.47515,-3.4577371)"
       id="g2806" />
    <g
       transform="matrix(0.9248169,0,0,0.9248169,-397.47515,-3.4577371)"
       id="g2558" />
    <g
       id="g3678"
       style="display:inline"
       transform="matrix(0.9248169,0,0,0.9248169,-470.53348,-11.184438)" />
    <g
       id="g3680"
       transform="matrix(0.9248169,0,0,0.9248169,-470.53348,-11.184438)" />
    <g
       id="g4299"
       style="display:inline"
       transform="matrix(0.9248169,0,0,0.9248169,-470.53348,-11.184438)" />
    <g
       transform="matrix(0.9248169,0,0,0.9248169,-325.77716,-2.9465344)"
       id="g3698" />
    <g
       transform="matrix(0.9248169,0,0,0.9248169,-170.10393,1.9182513)"
       id="g3760" />
    <g
       id="g5431"
       transform="matrix(0.9248169,0,0,0.9248169,-497.66445,-35.271408)" />
    <g
       style="display:inline"
       id="g4258"
       transform="matrix(0.9248169,0,0,0.9248169,-497.66445,-35.271408)" />
    <g
       id="g5440"
       transform="matrix(0.9248169,0,0,0.9248169,-497.66445,-35.271408)" />
    <g
       id="g3928"
       style="display:inline"
       transform="matrix(0.9248169,0,0,0.9248169,-468.59088,-22.101001)" />
    <g
       id="g3930"
       transform="matrix(0.9248169,0,0,0.9248169,-468.59088,-22.101001)" />
    <g
       id="g3932"
       style="display:inline"
       transform="matrix(0.9248169,0,0,0.9248169,-468.59088,-22.101001)" />
    <g
       transform="matrix(0.9248169,0,0,0.9248169,-323.83456,-13.863096)"
       id="g3934" />
    <g
       transform="matrix(0.9248169,0,0,0.9248169,-168.16133,-8.9983115)"
       id="g3936" />
    <g
       id="g3961"
       transform="matrix(0.9248169,0,0,0.9248169,-495.72186,-46.187971)" />
    <g
       style="display:inline"
       id="g3963"
       transform="matrix(0.9248169,0,0,0.9248169,-495.72186,-46.187971)" />
    <g
       id="layer7"
       transform="matrix(0.9248169,0,0,0.9248169,-495.72186,-46.187971)" />
    <g
       transform="matrix(0.9248169,0,0,0.9248169,-535.84811,3.0487262)"
       id="g2561" />
    <g
       transform="matrix(0.9248169,0,0,0.9248169,-535.84811,3.0487262)"
       id="g2860"
       style="display:inline" />
    <g
       transform="matrix(0.9248169,0,0,0.9248169,-584.9171,-20.270364)"
       id="g2564" />
    <g
       transform="matrix(0.9248169,0,0,0.9248169,-271.28925,-4.8227983)"
       id="g2790" />
    <g
       transform="matrix(0.9248169,0,0,0.9248169,-271.28925,-4.8227983)"
       id="g2792"
       style="display:inline" />
    <g
       transform="matrix(0.9248169,0,0,0.9248169,-390.15614,21.559457)"
       id="g2794" />
    <g
       transform="matrix(0.9248169,0,0,0.9248169,-390.15614,21.559457)"
       id="g2796" />
    <g
       transform="matrix(0.9248169,0,0,0.9248169,-390.15614,21.559457)"
       id="g2798" />
    <g
       id="g2886"
       style="display:inline"
       transform="matrix(0.9248169,0,0,0.9248169,-463.21447,13.832751)" />
    <g
       id="g2888"
       transform="matrix(0.9248169,0,0,0.9248169,-463.21447,13.832751)" />
    <g
       id="g2804"
       style="display:inline"
       transform="matrix(0.9248169,0,0,0.9248169,-463.21447,13.832751)" />
    <g
       transform="matrix(0.9248169,0,0,0.9248169,-318.45815,22.070659)"
       id="g2891" />
    <g
       transform="matrix(0.9248169,0,0,0.9248169,-162.78492,26.935445)"
       id="g2808" />
    <g
       id="g2810"
       transform="matrix(0.9248169,0,0,0.9248169,-490.34544,-10.254218)" />
    <g
       style="display:inline"
       id="g2812"
       transform="matrix(0.9248169,0,0,0.9248169,-490.34544,-10.254218)" />
    <g
       id="g2814"
       transform="matrix(0.9248169,0,0,0.9248169,-490.34544,-10.254218)" />
    <g
       id="g2816"
       style="display:inline"
       transform="matrix(0.9248169,0,0,0.9248169,-461.27187,2.9161879)" />
    <g
       id="g2818"
       transform="matrix(0.9248169,0,0,0.9248169,-461.27187,2.9161879)" />
    <g
       id="g2820"
       style="display:inline"
       transform="matrix(0.9248169,0,0,0.9248169,-461.27187,2.9161879)" />
    <g
       transform="matrix(0.9248169,0,0,0.9248169,-316.51555,11.154093)"
       id="g2823" />
    <g
       transform="matrix(0.9248169,0,0,0.9248169,-160.84232,16.018879)"
       id="g2825" />
    <g
       id="g2827"
       transform="matrix(0.9248169,0,0,0.9248169,-488.40285,-21.170781)" />
    <g
       style="display:inline"
       id="g2829"
       transform="matrix(0.9248169,0,0,0.9248169,-488.40285,-21.170781)" />
    <g
       id="g2831"
       transform="matrix(0.9248169,0,0,0.9248169,-488.40285,-21.170781)" />
    <path
       id="path3372"
       style="fill:url(#linearGradient3573);fill-opacity:1;stroke:#204a87;stroke-width:1;stroke-linecap:butt;stroke-linejoin:round;stroke-miterlimit:4;stroke-dasharray:none;stroke-opacity:1"
       d="m 24.000386,32.500479 c -4.894952,-0.05388 -8.553204,-4.126736 -8.499087,-9 0.05412,-4.873262 4.104132,-9.053879 8.999087,-9 2.36391,0.02602 4.43898,0.509791 6.136756,2.147585 l -4.136756,4.852415 h 16 c 0,0 0,-16.0000003 0,-16.0000003 l -4.471103,3.60953 C 34.321057,5.4660148 30.034538,3.5566302 24.561664,3.4963914 13.428105,3.3738462 4.548551,12.443375 4.42546,23.527601 4.302368,34.611826 13.161193,43.281456 24.294752,43.404" />
    <path
       id="path3453"
       style="fill:url(#linearGradient3282);fill-opacity:1;stroke:url(#linearGradient3272);stroke-width:1;stroke-linecap:butt;stroke-linejoin:miter;stroke-miterlimit:4;stroke-dasharray:none;stroke-opacity:1"
       d="m 23.864499,43.402143 c 9.310119,0.102473 19.728816,-7.091093 19.712061,-19.52578 l -9.859131,-0.07674 c -0.181508,5.072466 -5.546622,8.889748 -9.967043,8.70086" />
    <path
       id="path3370"
       style="opacity:0.4;fill:none;fill-opacity:1;stroke:url(#linearGradient3567);stroke-width:1.193;stroke-linecap:butt;stroke-linejoin:miter;stroke-miterlimit:4;stroke-dasharray:none;stroke-opacity:1"
       d="m 24.250386,33.650479 c -5.423155,-0.07929 -9.744296,-3.86846 -9.75,-10.15 -0.0049,-5.396381 4.672169,-10.219134 10.095325,-10.139848 2.673075,0.03908 5.712878,0.890037 7.726664,3.166851 l -3.326033,3.833131 12.383472,0.02029 c 0,0 0,-12.4640654 0,-12.4640654 L 38.002186,10.791566 C 34.460164,6.8406657 30.021171,4.6907675 24.480768,4.6353259 13.882981,4.5292764 5.674253,13.036629 5.592359,23.634383 5.851431,35.490122 14.98514,42.25314 24.294902,42.455875" />
    <path
       id="path2557"
       style="fill:none;fill-opacity:1;stroke:url(#linearGradient3317);stroke-width:1.19296;stroke-linecap:butt;stroke-linejoin:round;stroke-miterlimit:4;stroke-dasharray:none;stroke-opacity:1"
       d="m 23.719463,42.296437 c 7.952554,0 18.798917,-5.534339 18.899107,-18.388772 l -8.056886,-0.206291 c 0.0072,5.215907 -4.746473,9.725063 -10.309723,9.89001" />
  </g>
</svg>
